{
  "accessors": [
    {
      "bufferView": 2,
      "componentType": 5126,
      "count": 40,
      "max": [
        4.9607338905334473,
        2.8607749938964844,
        0.011505600064992905
      ],
      "min": [
        -4.2219982147216797,
        -3.467534065246582,
        -0.013375160284340382
      ],
      "type": "VEC3"
    },
    {
      "bufferView": 2,
      "byteOffset": 480,
      "componentType": 5126,
      "count": 40,
      "max": [
        0.8727220892906189,
        0.98984301090240479,
        1
      ],
      "min": [
        -0.86571097373962402,
        -0.97263830900192261,
        -1
      ],
      "type": "VEC3"
    },
    {
      "bufferView": 1,
      "componentType": 5126,
      "count": 40,
      "max": [
        0.44607850909233093,
        0.96715140342712402
      ],
      "min": [
        0.0060454010963439941,
        0.0073854918591678143
      ],
      "type": "VEC2"
    },
    {
      "bufferView": 0,
      "componentType": 5125,
      "count": 60,
      "max": [
        39
      ],
      "min": [
        0
      ],
      "type": "SCALAR"
    },
    {
      "bufferView": 2,
      "byteOffset": 960,
      "componentType": 5126,
      "count": 40,
      "max": [
        2.7479569911956787,
        5.5384068489074707,
        0.0070877070538699627
      ],
      "min": [
        -5.0016489028930664,
        -3.4676530361175537,
        -0.0077074761502444744
      ],
      "type": "VEC3"
    },
    {
      "bufferView": 2,
      "byteOffset": 1440,
      "componentType": 5126,
      "count": 40,
      "max": [
        0.85523694753646851,
        0.47893854975700378,
        1
      ],
      "min": [
        -0.87126350402832031,
        -0.99639809131622314,
        -1
      ],
      "type": "VEC3"
    },
    {
      "bufferView": 1,
      "byteOffset": 320,
      "componentType": 5126,
      "count": 40,
      "max": [
        0.48055070638656616,
        0.63546890020370483
      ],
      "min": [
        0.014013820327818394,
        0.13452410697937012
      ],
      "type": "VEC2"
    },
    {
      "bufferView": 0,
      "byteOffset": 240,
      "componentType": 5125,
      "count": 60,
      "max": [
        39
      ],
      "min": [
        0
      ],
      "type": "SCALAR"
    },
    {
      "bufferView": 2,
      "byteOffset": 1920,
      "componentType": 5126,
      "count": 40,
      "max": [
        4.9604830741882324,
        5.5371980667114258,
        0.006242572795599699
      ],
      "min": [
        -1.9317389726638794,
        -2.0801169872283936,
        -0.0040549030527472496
      ],
      "type": "VEC3"
    },
    {
      "bufferView": 2,
      "byteOffset": 2400,
      "componentType": 5126,
      "count": 40,
      "max": [
        0.76534909009933472,
        0.99247449636459351,
        1
      ],
      "min": [
        -0.86590498685836792,
        -0.94474059343338013,
        -1
      ],
      "type": "VEC3"
    },
    {
      "bufferView": 1,
      "byteOffset": 640,
      "componentType": 5126,
      "count": 40,
      "max": [
        0.95424211025238037,
        0.95037287473678589
      ],
      "min": [
        0.036330930888652802,
        0.066932260990142822
      ],
      "type": "VEC2"
    },
    {
      "bufferView": 0,
      "byteOffset": 480,
      "componentType": 5125,
      "count": 60,
      "max": [
        39
      ],
      "min": [
        0
      ],
      "type": "SCALAR"
    }
  ],
  "asset": {
    "extras": {
      "author": "mellydeeis (https://sketchfab.com/mellydeeis)",
      "license": "CC-BY-4.0 (http://creativecommons.org/licenses/by/4.0/)",
      "source": "https://sketchfab.com/3d-models/triangle-optical-illusion-test-2009f618a4904b6f89fb185d27226bf8",
      "title": "Triangle Optical illusion Test"
    },
    "generator": "Sketchfab-7.38.0",
    "version": "2.0"
  },
  "bufferViews": [
    {
      "buffer": 0,
      "byteLength": 720,
      "byteOffset": 0,
      "name": "floatBufferViews",
      "target": 34963
    },
    {
      "buffer": 0,
      "byteLength": 960,
      "byteOffset": 720,
      "byteStride": 8,
      "name": "floatBufferViews",
      "target": 34962
    },
    {
      "buffer": 0,
      "byteLength": 2880,
      "byteOffset": 1680,
      "byteStride": 12,
      "name": "floatBufferViews",
      "target": 34962
    }
  ],
  "buffers": [
    {
      "byteLength": 4560,
      "uri": "scene.bin"
    }
  ],
  "images": [
    {
      "uri": "textures/Material_baseColor.jpeg"
    },
    {
      "uri": "textures/Material_metallicRoughness.png"
    },
    {
      "uri": "textures/Material_001_metallicRoughness.png"
    }
  ],
  "materials": [
    {
      "doubleSided": true,
      "emissiveFactor": [
        0,
        0,
        0
      ],
      "name": "Material",
      "pbrMetallicRoughness": {
        "baseColorFactor": [
          1,
          1,
          1,
          1
        ],
        "baseColorTexture": {
          "index": 0,
          "texCoord": 0
        },
        "metallicFactor": 1,
        "metallicRoughnessTexture": {
          "index": 1,
          "texCoord": 0
        },
        "roughnessFactor": 0
      }
    },
    {
      "doubleSided": true,
      "emissiveFactor": [
        0,
        0,
        0
      ],
      "name": "Material_001",
      "pbrMetallicRoughness": {
        "baseColorFactor": [
          1,
          1,
          1,
          1
        ],
        "baseColorTexture": {
          "index": 0,
          "texCoord": 0
        },
        "metallicFactor": 0.50314465408805031,
        "metallicRoughnessTexture": {
          "index": 2,
          "texCoord": 0
        },
        "roughnessFactor": 1
      }
    },
    {
      "doubleSided": true,
      "emissiveFactor": [
        0,
        0,
        0
      ],
      "name": "Material_002",
      "pbrMetallicRoughness": {
        "baseColorFactor": [
          0.19496855345911951,
          0.19496855345911951,
          0.19496855345911951,
          1
        ],
        "baseColorTexture": {
          "index": 0,
          "texCoord": 0
        },
        "metallicFactor": 0,
        "metallicRoughnessTexture": {
          "index": 1,
          "texCoord": 0
        },
        "roughnessFactor": 0
      }
    }
  ],
  "meshes": [
    {
      "name": "Material_002-material",
      "primitives": [
        {
          "attributes": {
            "NORMAL": 1,
            "POSITION": 0,
            "TEXCOORD_0": 2
          },
          "indices": 3,
          "material": 2,
          "mode": 4
        }
      ]
    },
    {
      "name": "Material_001-material",
      "primitives": [
        {
          "attributes": {
            "NORMAL": 5,
            "POSITION": 4,
            "TEXCOORD_0": 6
          },
          "indices": 7,
          "material": 1,
          "mode": 4
        }
      ]
    },
    {
      "name": "Material-material",
      "primitives": [
        {
          "attributes": {
            "NORMAL": 9,
            "POSITION": 8,
            "TEXCOORD_0": 10
          },
          "indices": 11,
          "material": 0,
          "mode": 4
        }
      ]
    }
  ],
  "nodes": [
    {
      "children": [
        1
      ],
      "name": "RootNode (gltf orientation matrix)",
      "rotation": [
        -0.70710678118654746,
        -0,
        -0,
        0.70710678118654757
      ]
    },
    {
      "children": [
        2
      ],
      "name": "RootNode (model correction matrix)"
    },
    {
      "children": [
        3,
        5,
        7
      ],
      "name": "Collada visual scene group"
    },
    {
      "children": [
        4
      ],
      "matrix": [
        0.44656790000000002,
        0,
        0,
        0,
        0,
        0.01269584,
        0.44638739999999999,
        0,
        0,
        -0.59419480000000002,
        0.016899669999999999,
        0,
        0.2173689,
        0.095239450000000003,
        -1.664866,
        1
      ],
      "name": "Plane_007"
    },
    {
      "mesh": 0,
      "name": "Material_002-material"
    },
    {
      "children": [
        6
      ],
      "matrix": [
        0.44656790000000002,
        0,
        0,
        0,
        0,
        0.01269584,
        0.44638739999999999,
        0,
        0,
        -0.59419480000000002,
        0.016899669999999999,
        0,
        0.2173689,
        0.095239450000000003,
        -1.664866,
        1
      ],
      "name": "Plane_006"
    },
    {
      "mesh": 1,
      "name": "Material_001-material"
    },
    {
      "children": [
        8
      ],
      "matrix": [
        0.44656790000000002,
        0,
        0,
        0,
        0,
        0.01269584,
        0.44638739999999999,
        0,
        0,
        -0.59419480000000002,
        0.016899669999999999,
        0,
        0.2173689,
        0.095239450000000003,
        -1.664866,
        1
      ],
      "name": "Plane_005"
    },
    {
      "mesh": 2,
      "name": "Material-material"
    }
  ],
  "samplers": [
    {
      "magFilter": 9729,
      "minFilter": 9987,
      "wrapS": 10497,
      "wrapT": 10497
    }
  ],
  "scene": 0,
  "scenes": [
    {
      "name": "OSG_Scene",
      "nodes": [
        0
      ]
    }
  ],
  "textures": [
    {
      "sampler": 0,
      "source": 0
    },
    {
      "sampler": 0,
      "source": 1
    },
    {
      "sampler": 0,
      "source": 2
    }
  ]
}

